<svg xmlns="http://www.w3.org/2000/svg" width="1122" height="460" viewBox="0 0 1122 460">
  <defs>
    <style>
      .cls-1 {
        fill: #0d0106;
      }

      .cls-1, .cls-2 {
        fill-rule: evenodd;
      }

      .cls-2 {
        fill: #798071;
      }
    </style>
  </defs>
  <path id="Steamboat_Inspection_Agency" data-name="Steamboat Inspection Agency" class="cls-1" d="M48.183,159.458a45.072,45.072,0,0,0,13.171-6.766,47.992,47.992,0,0,0,9.788-11.842,27.652,27.652,0,0,0,3.987-14.258c0-.8-0.041-1.609-0.121-2.417s-0.2-1.609-.362-2.417a19.851,19.851,0,0,0-5.8-11.358,54.725,54.725,0,0,0-11-8.458q-6.162-3.625-11.721-6.525,0.481,0-1.208-.967a11.81,11.81,0,0,0-2.658-1.208q-12.569-7.006-18.487-15.1T17.854,61.825q0-10.388,8.1-20.3A80.586,80.586,0,0,1,47.1,23.763a100.462,100.462,0,0,1,27.55-11.479q2.413-.238,4.592-0.483a36.063,36.063,0,0,1,3.867-.242q11.838,0,11.842,8.217a14.88,14.88,0,0,1-1.933,7.008,12.361,12.361,0,0,1-2.175,3.142,13.476,13.476,0,0,1-2.9,2.658q-1.45.969-1.45,1.692,0,0.969,1.45.967a0.49,0.49,0,0,0,.362-0.121A0.494,0.494,0,0,1,88.663,35a30.562,30.562,0,0,0,4.592-3.383,22.61,22.61,0,0,0,3.383-3.625,14.772,14.772,0,0,0,2.537-5.2,21.482,21.482,0,0,0,.6-4.954A9.642,9.642,0,0,0,97.725,11.8a18.177,18.177,0,0,0-5.437-4.592A27.26,27.26,0,0,0,81.654,5.275q-2.175,0-4.713.242a30.833,30.833,0,0,0-4.471.725,104.791,104.791,0,0,0-24.046,8.217,95.506,95.506,0,0,0-20.3,13.05A65.244,65.244,0,0,0,14.108,43.7a34.05,34.05,0,0,0-5.2,17.642q0,9.912,6.767,19.333T38.154,97.833a90.7,90.7,0,0,1,7.733,4.834q4.588,3.142,9.063,6.162a68.163,68.163,0,0,1,6.646,4.954,22.2,22.2,0,0,1,6.767,8.338A21.626,21.626,0,0,1,70.3,130.7a19.727,19.727,0,0,1-1.692,7.975,26.119,26.119,0,0,1-8.579,8.821,51.632,51.632,0,0,1-13.05,6.283,45.271,45.271,0,0,1-13.9,2.3,23.341,23.341,0,0,1-13.05-3.625q-6.768-5.556-6.767-13.292a16.47,16.47,0,0,1,2.417-8.458,6.007,6.007,0,0,0,.725-2.658c0-.967-0.325-1.45-0.967-1.45s-1.775.887-3.383,2.658a14.984,14.984,0,0,0-2.538,4.833,22.151,22.151,0,0,0-1.087,7.25q0,11.362,7.25,16.071A30.336,30.336,0,0,0,32.6,162.117,48.436,48.436,0,0,0,48.183,159.458Zm50.75-.725a1.787,1.787,0,0,0,.846-1.691,0.493,0.493,0,0,0-.121-0.363,0.489,0.489,0,0,1-.121-0.362,34.194,34.194,0,0,1-5.558-14.38,119.683,119.683,0,0,1-.967-15.587V124.9a44.768,44.768,0,0,1,2.537-9.183q2.05-5.557,4.592-11.117t3.987-8.942q6.039-1.45,11.963-2.417t11.962-1.692a5.141,5.141,0,0,1,1.571-.362,0.954,0.954,0,0,0,1.088-.846q0-.963-2.659-1.208c-1.774-.159-2.82-0.242-3.141-0.242q-2.175,0-4.592.242a39.636,39.636,0,0,0-4.592.725,39.11,39.11,0,0,1-4.712.6,33.251,33.251,0,0,0-4.471.6q5.8-10.15,12.325-19.575,0.725-1.206,1.329-2.3a4.681,4.681,0,0,0,.6-2.3q0-1.931-2.175-1.933-4.111,0-5.8,3.142a110.524,110.524,0,0,0-6.646,11.721q-3.024,6.162-5.679,12.2a63.289,63.289,0,0,0-9.183,2.417q-4.112,1.45-4.108,7.975a6.581,6.581,0,0,0,.121,1.329,6.9,6.9,0,0,1,.121,1.329q0.481,4.35.725,8.7t0.483,8.459q0.238,1.936.483,3.987a34.73,34.73,0,0,1,.242,3.988,27.221,27.221,0,0,1-.363,4.229,30.216,30.216,0,0,0-.362,4.712,39.136,39.136,0,0,0,1.208,9.788,22.624,22.624,0,0,0,4.592,8.821,4.021,4.021,0,0,0,2.658,1.45A3.621,3.621,0,0,0,98.933,158.733Zm-7.854-47q-0.244-3.263-.242-6.646a3.936,3.936,0,0,1,.483-2.175q0.963-4.35,2.3-4.712a45.375,45.375,0,0,1,4.954-.846q-1.937,5.319-3.867,10.512a82.279,82.279,0,0,0-3.142,10.513Q91.319,114.994,91.079,111.729Zm47.729,36.854a78.777,78.777,0,0,0,12.567-10.875,80.17,80.17,0,0,0,9.3-11.6,1.575,1.575,0,0,0,0-1.208,0.84,0.84,0,0,0-.725-0.725,1.289,1.289,0,0,0-.966.725,71.839,71.839,0,0,1-9.184,10.754,76.187,76.187,0,0,1-11.237,9.183,23.81,23.81,0,0,1-10.513,4.23,5.151,5.151,0,0,1-4.712-1.692,7.034,7.034,0,0,1-1.571-4.592,35.044,35.044,0,0,1,2.417-11.358q2.412-6.764,5.437-13.292t4.713-9.908a7.394,7.394,0,0,0,2.779,1.087,17.43,17.43,0,0,0,4.471.605,15.679,15.679,0,0,0,9.183-3.625,10.086,10.086,0,0,0,3.625-7.975,21.856,21.856,0,0,0-1.088-6.042A4.549,4.549,0,0,0,148.6,88.65a9.36,9.36,0,0,0-6.4,2.779,39.129,39.129,0,0,0-5.559,6.4q-2.537,3.625-4.229,6.284a6.686,6.686,0,0,0-2.658-1.209c-0.483,0-.725.325-0.725,0.967a5.691,5.691,0,0,0,.6,2.3,7.071,7.071,0,0,0,.846,1.571q-2.663,4.111-6.042,10.633a100.084,100.084,0,0,0-5.8,13.533,38.532,38.532,0,0,0-2.416,12.325q0,5.076,2.779,7.492a9.272,9.272,0,0,0,7.371,1.933Q132.162,153.172,138.808,148.583Zm-0.483-42.05a15.5,15.5,0,0,1-2.537-.725q1.206-1.931,3.987-6.162t4.954-4.471a1.5,1.5,0,0,1,1.571,1.088,6.509,6.509,0,0,1,.363,2.054,8.6,8.6,0,0,1-.967,5.8,6.3,6.3,0,0,1-4.833,2.9A16.189,16.189,0,0,1,138.325,106.533ZM172.4,145.562a41.443,41.443,0,0,0,7.492-8.216,88.94,88.94,0,0,0,6.162-10.029q2.656-5.076,4.109-8.7a94.846,94.846,0,0,0,.12,10.754,77.12,77.12,0,0,0,.846,7.854q1.689,7.013,4.35,9.908a7.8,7.8,0,0,0,5.8,2.9,12.977,12.977,0,0,0,7.25-2.658,33.445,33.445,0,0,0,7.009-6.525q4.106-4.832,7.37-9.3t5.68-8.579a3.444,3.444,0,0,0,.483-1.934c0-.483-0.162-0.725-0.483-0.725a1.944,1.944,0,0,0-1.209.967l-5.316,7.25q-1.693,2.175-4.955,6.162a63.846,63.846,0,0,1-6.766,7.13q-3.507,3.142-6.4,3.141t-4.834-4.712q-1.937-4.713-1.933-14.621,0-5.556.483-11t1.45-11a1.053,1.053,0,0,1,.121-0.483,1.082,1.082,0,0,0,.121-0.483q0-2.413-2.175-2.417a4.55,4.55,0,0,0-4.108,2.417,16.43,16.43,0,0,0-1.934,4.35l-0.483,2.658a108.512,108.512,0,0,1-7.975,16.433q-5.074,8.7-9.183,14.5-1.212,1.45-3.142,3.625a5.53,5.53,0,0,1-4.108,2.175c-1.129,0-1.9-.762-2.3-2.3a17.464,17.464,0,0,1-.6-4.47,15.706,15.706,0,0,1,.483-4.592,42.186,42.186,0,0,1,4.471-13.292,124.194,124.194,0,0,1,8.821-14.862,100.34,100.34,0,0,1,9.425-11.963,43.653,43.653,0,0,1,7.37-6.767,33.438,33.438,0,0,1,8.821-4.35,16.323,16.323,0,0,1,2.054-.362,18.951,18.951,0,0,1,2.055-.121,7.912,7.912,0,0,1,3.262.6,2.289,2.289,0,0,1,1.329,2.3,9.274,9.274,0,0,1-1.208,3.625,13.122,13.122,0,0,0-.846,1.45,13.766,13.766,0,0,1-.846,1.45,1.584,1.584,0,0,0-.241,1.45,0.725,0.725,0,0,0,1.45,0l1.933-3.142a10.4,10.4,0,0,0,1.933-5.8q0-5.8-7.491-5.8a20.187,20.187,0,0,0-3.021.242,17.852,17.852,0,0,0-3.5.967,51.287,51.287,0,0,0-19.213,12.083,80.709,80.709,0,0,0-15.1,19.817,63.742,63.742,0,0,0-7.492,22.233,24.293,24.293,0,0,0,.121,5.317,14.79,14.79,0,0,0,1.933,6.042,5.121,5.121,0,0,0,4.713,2.658Q168.409,148.825,172.4,145.562Zm61.383,7.734a0.482,0.482,0,0,1,.363-0.121q2.175-.969,2.417-2.3a14.247,14.247,0,0,1,.966-3.021l-0.241-1.691a0.7,0.7,0,0,0,.241-0.484q0.726-2.656,2.779-7.975t4.834-11.841a124.457,124.457,0,0,1,6.041-12.325,53.233,53.233,0,0,1,6.767-9.667q3.5-3.863,6.646-3.867,1.932,0,1.933,2.9a17.206,17.206,0,0,1-.725,4.713c-0.483,1.691-.808,2.779-0.966,3.262a57.254,57.254,0,0,1-3.263,8.1q-2.538,5.438-4.833,11t-2.054,8.458a2.9,2.9,0,0,0,1.329,2.054,3.867,3.867,0,0,0,2.054,1.088q2.656,0,6.162-2.538a67.548,67.548,0,0,0,7.25-6.162q3.744-3.625,7.009-7.129t4.954-5.2q-0.969,3.869-2.054,8.217a34.822,34.822,0,0,0-1.088,8.458,23.156,23.156,0,0,0,1.571,8.1q1.569,4.232,6.646,4.229a10.382,10.382,0,0,0,4.35-1.329,24.958,24.958,0,0,0,4.954-3.263q2.293-1.931,2.3-3.866c0-.484-0.162-0.725-0.483-0.725q-0.969,0-2.9,3.02a6.429,6.429,0,0,1-5.8,3.021q-3.144,0-3.625-2.9a32.223,32.223,0,0,1-.484-5.316,50.714,50.714,0,0,1,1.329-11.359,80.285,80.285,0,0,1,3.5-11.358c0.158-.321.362-0.683,0.6-1.088a2.531,2.531,0,0,0,.362-1.329,1.709,1.709,0,0,0-1.933-1.933,6.724,6.724,0,0,0-4.108,1.45,18.4,18.4,0,0,0-3.142,2.9q-3.144,3.869-7.371,8.821A79.838,79.838,0,0,1,267.5,133q-4.35,3.75-8.217,3.746-1.449,0,.725-3.988t5.679-10.029q3.5-6.037,6.405-11.842t2.9-9.425a10.539,10.539,0,0,0-1.33-5.558q-1.331-2.175-4.712-2.175a11.677,11.677,0,0,0-4.833,1.088,17.414,17.414,0,0,0-4.35,2.779q-3.387,2.662-7.371,9.062t-7.734,13.9q-3.749,7.494-6.645,14.017,0.237-1.932.362-3.867t0.121-4.108a79.866,79.866,0,0,0-1.692-15.83,61.649,61.649,0,0,0-5.2-15.345,23.012,23.012,0,0,0-9.062-10.15,1.976,1.976,0,0,0-1.45-.483q-0.481,0-.363.725a0.683,0.683,0,0,0,.6.725,15.935,15.935,0,0,1,7.008,9.425,64.649,64.649,0,0,1,2.175,11.117q0.482,3.144.725,6.767t0.242,7.733a120.36,120.36,0,0,1-.725,13.292,59.081,59.081,0,0,1-2.175,11.116,5.128,5.128,0,0,0-.484,2.659,7.1,7.1,0,0,0,1.571,3.383,4.244,4.244,0,0,0,3.5,1.692A0.973,0.973,0,0,0,233.783,153.3Zm111.409-6.646a72.075,72.075,0,0,0,8.7-14.017,112.946,112.946,0,0,0,6.4-16.071q2.413-7.85,2.417-11.72a11.44,11.44,0,0,0-1.088-4.954,4.014,4.014,0,0,0-3.987-2.3,13.84,13.84,0,0,0-7.25,2.416q-3.868,2.419-6.525,4.35a72.429,72.429,0,0,0-15.346,16.554q-6.888,10.032-12.2,19.213a55.118,55.118,0,0,1-.725-5.921q-0.245-3.263-.242-7.129,0-6.764.483-13.654t1.088-12.446A66.5,66.5,0,0,1,318,93.483a29.222,29.222,0,0,0,11.842,2.658A36.175,36.175,0,0,0,346.4,92.033a76.1,76.1,0,0,0,15.467-10.513A126.841,126.841,0,0,0,375.038,68.35a114.789,114.789,0,0,0,16.07-24.65q6.4-13.288,6.4-23.925a22.021,22.021,0,0,0-2.659-11,16.605,16.605,0,0,0-8.7-7.129,14.53,14.53,0,0,0-5.8-.967q-8.219,0-18.608,6.767A93.17,93.17,0,0,0,341.325,26.3a136.5,136.5,0,0,0-17.642,27.792,120.938,120.938,0,0,0-10.512,33.833,10.981,10.981,0,0,1-5.2-7.129,36.741,36.741,0,0,1-1.329-9.546V68.833a8.9,8.9,0,0,1,.242-2.175q0-1.45-.725-1.692-1.45-1.206-1.934.725a0.985,0.985,0,0,0-.241.725,59.465,59.465,0,0,0,.12,8.337,31.688,31.688,0,0,0,2.3,9.908,12,12,0,0,0,6.042,6.646,111.784,111.784,0,0,0-1.571,13.413q-0.606,8.581-.6,17.521,0,8.218.6,15.587t2.054,10.754a1.327,1.327,0,0,0,.484.725c0.158,0.808.966,1.209,2.416,1.209q2.656,0,2.659-2.9a3.411,3.411,0,0,0-.242-1.45l3.142-7.009a150.727,150.727,0,0,1,10.15-17.641,62.492,62.492,0,0,1,13.533-14.742,49.03,49.03,0,0,1,3.987-2.9,8.421,8.421,0,0,1,4.471-1.692q2.175,0,2.175,2.659a12.5,12.5,0,0,1-.241,2.416q-0.245,1.212-.484,2.417-0.724,2.663-2.658,8.942t-4.592,13.291a66.411,66.411,0,0,1-5.8,11.963q-3.142,4.956-6.283,4.954a4.328,4.328,0,0,1-2.9-1.329,3.8,3.8,0,0,1-1.45-2.779q0-.239-0.846-3.021a44.355,44.355,0,0,0-1.812-4.954,1.552,1.552,0,0,0-1.692-1.45,1.294,1.294,0,0,0-1.45.845,6.57,6.57,0,0,0-.242,1.813,17.275,17.275,0,0,0,1.329,5.921,17.734,17.734,0,0,0,3.746,6.041,7.236,7.236,0,0,0,5.317,2.538Q340.478,152.45,345.192,146.65Zm-21.629-78.9a152.762,152.762,0,0,1,10.27-22.958,124.586,124.586,0,0,1,13.775-20.3,74.977,74.977,0,0,1,15.83-14.5q8.213-5.437,16.191-5.437,7.732,0,11,3.988a15.7,15.7,0,0,1,3.263,10.271q0,9.425-6.163,22.354a122.216,122.216,0,0,1-15.587,24.529,131.8,131.8,0,0,1-12.446,12.688,70.129,70.129,0,0,1-14.621,10.15,33.946,33.946,0,0,1-15.708,3.987A25.5,25.5,0,0,1,318.246,90.1,102.691,102.691,0,0,1,323.563,67.746Zm74.8,78.058a55.21,55.21,0,0,0,14.984-9.062,49.146,49.146,0,0,0,11.116-13.171,30.44,30.44,0,0,0,4.23-15.346q0-9.181-5.8-14.742T407.9,87.925a36.79,36.79,0,0,0-18.729,5.438,59.894,59.894,0,0,0-15.346,12.446,47.31,47.31,0,0,0-6.162,10.029,26.492,26.492,0,0,0-2.779,11.238,11.107,11.107,0,0,0,3.141,8.217,11.037,11.037,0,0,0-.241,2.9q0,6.286,4.712,8.579a23.1,23.1,0,0,0,10.271,2.3A41.647,41.647,0,0,0,398.358,145.8Zm-22.837-1.329q-2.418-1.687-2.417-6.525c0.642,0.162,1.288.325,1.934,0.483a7.828,7.828,0,0,0,1.933.242c0.642,0,.967-0.242.967-0.725,0-.321-0.688-0.763-2.055-1.329a18.1,18.1,0,0,1-2.779-1.329,25.4,25.4,0,0,1,4.471-12.446,52.923,52.923,0,0,1,9.667-10.754A71.976,71.976,0,0,1,398,104.358a15.476,15.476,0,0,0-1.088,1.45,3.92,3.92,0,0,0-.845,2.175c0,0.325.241,0.484,0.725,0.484a6.473,6.473,0,0,0,2.3-1.33q1.813-1.325,3.746-2.779t2.659-1.933a3.569,3.569,0,0,0,1.208-1.571,5.414,5.414,0,0,0,.483-1.329,8.891,8.891,0,0,0-.725-3.263q-0.724-1.812-1.933-1.812a1.411,1.411,0,0,0-.967.242q-14.743,7.25-22.716,16.8T370.2,127.317a34.07,34.07,0,0,1,6.525-16.917,49.631,49.631,0,0,1,14.259-13.533,31.945,31.945,0,0,1,17.158-5.317q7.976,0,11.842,4.833t3.866,12.567a30.672,30.672,0,0,1-6.283,18.487,46.63,46.63,0,0,1-15.708,13.655,39.893,39.893,0,0,1-19.092,5.075Q377.934,146.167,375.521,144.475Zm69.962,1.087a41.383,41.383,0,0,0,7.492-8.216,88.951,88.951,0,0,0,6.163-10.029q2.656-5.076,4.108-8.7a94.841,94.841,0,0,0,.121,10.754,76.543,76.543,0,0,0,.846,7.854q1.688,7.013,4.35,9.908a7.8,7.8,0,0,0,5.8,2.9,12.979,12.979,0,0,0,7.25-2.658,33.465,33.465,0,0,0,7.008-6.525q4.107-4.832,7.371-9.3t5.679-8.579a3.444,3.444,0,0,0,.483-1.934c0-.483-0.162-0.725-0.483-0.725a1.94,1.94,0,0,0-1.208.967l-5.317,7.25q-1.694,2.175-4.954,6.162a63.761,63.761,0,0,1-6.767,7.13q-3.505,3.142-6.4,3.141t-4.833-4.712q-1.938-4.713-1.934-14.621,0-5.556.484-11t1.45-11a1.051,1.051,0,0,1,.12-0.483,1.069,1.069,0,0,0,.121-0.483q0-2.413-2.175-2.417a4.552,4.552,0,0,0-4.108,2.417,16.424,16.424,0,0,0-1.933,4.35l-0.484,2.658a108.417,108.417,0,0,1-7.975,16.433q-5.075,8.7-9.183,14.5-1.212,1.45-3.142,3.625a5.53,5.53,0,0,1-4.108,2.175c-1.129,0-1.9-.762-2.3-2.3a17.464,17.464,0,0,1-.6-4.47,15.741,15.741,0,0,1,.483-4.592,42.212,42.212,0,0,1,4.471-13.292A124.327,124.327,0,0,1,450.2,106.9a100.34,100.34,0,0,1,9.425-11.963,43.657,43.657,0,0,1,7.371-6.767,33.423,33.423,0,0,1,8.821-4.35,16.323,16.323,0,0,1,2.054-.362,18.933,18.933,0,0,1,2.054-.121,7.909,7.909,0,0,1,3.262.6,2.29,2.29,0,0,1,1.33,2.3,9.263,9.263,0,0,1-1.209,3.625,13.282,13.282,0,0,0-.846,1.45,13.582,13.582,0,0,1-.845,1.45,1.588,1.588,0,0,0-.242,1.45,0.725,0.725,0,1,0,1.45,0l1.933-3.142a10.4,10.4,0,0,0,1.934-5.8q0-5.8-7.492-5.8a20.187,20.187,0,0,0-3.021.242,17.871,17.871,0,0,0-3.5.967,51.287,51.287,0,0,0-19.213,12.083,80.758,80.758,0,0,0-15.1,19.817,63.719,63.719,0,0,0-7.491,22.233,24.281,24.281,0,0,0,.12,5.317,14.776,14.776,0,0,0,1.934,6.042,5.121,5.121,0,0,0,4.712,2.658Q441.493,148.825,445.483,145.562Zm65.975,13.171a1.787,1.787,0,0,0,.846-1.691,0.491,0.491,0,0,0-.121-0.363,0.489,0.489,0,0,1-.12-0.362,34.188,34.188,0,0,1-5.559-14.38,119.809,119.809,0,0,1-.966-15.587V124.9a44.748,44.748,0,0,1,2.537-9.183q2.05-5.557,4.592-11.117t3.987-8.942q6.039-1.45,11.963-2.417t11.962-1.692a5.141,5.141,0,0,1,1.571-.362,0.954,0.954,0,0,0,1.088-.846q0-.963-2.659-1.208c-1.774-.159-2.82-0.242-3.141-0.242q-2.175,0-4.592.242a39.636,39.636,0,0,0-4.592.725,39.085,39.085,0,0,1-4.712.6,33.251,33.251,0,0,0-4.471.6q5.8-10.15,12.325-19.575,0.725-1.206,1.329-2.3a4.681,4.681,0,0,0,.6-2.3q0-1.931-2.175-1.933-4.111,0-5.8,3.142a110.524,110.524,0,0,0-6.646,11.721q-3.024,6.162-5.679,12.2a63.3,63.3,0,0,0-9.183,2.417q-4.111,1.45-4.108,7.975a6.591,6.591,0,0,0,.12,1.329,6.842,6.842,0,0,1,.121,1.329q0.482,4.35.725,8.7t0.484,8.459q0.237,1.936.483,3.987a34.642,34.642,0,0,1,.242,3.988,27.189,27.189,0,0,1-.363,4.229,30.18,30.18,0,0,0-.362,4.712,39.14,39.14,0,0,0,1.208,9.788,22.622,22.622,0,0,0,4.592,8.821,4.02,4.02,0,0,0,2.658,1.45A3.618,3.618,0,0,0,511.458,158.733Zm-7.854-47q-0.243-3.263-.241-6.646a3.934,3.934,0,0,1,.483-2.175q0.963-4.35,2.3-4.712a45.327,45.327,0,0,1,4.954-.846q-1.937,5.319-3.867,10.512a82.308,82.308,0,0,0-3.141,10.513Q503.844,114.994,503.6,111.729Zm130.138,60.779a21.029,21.029,0,0,0,4.471-1.691q2.412-1.451,2.416-2.659a1.185,1.185,0,0,0-1.45-1.208,4.334,4.334,0,0,0-2.175.725h0.484a12.433,12.433,0,0,1-5.559,1.45,9.351,9.351,0,0,1-6.525-2.417,20.749,20.749,0,0,1-4.35-5.558q-1.693-3.144-2.658-5.075-0.243-1.212-.6-2.417a7.671,7.671,0,0,1-.363-2.175q8.457-1.93,17.038-3.746a141.263,141.263,0,0,1,16.8-2.537q1.206,0,1.208-1.692,0-2.175-1.45-1.691-7.012.243-16.071,1.329t-18.729,2.537a22.881,22.881,0,0,1-.242-3.262v-3.263q0-16.431,6.767-35.4a169.119,169.119,0,0,1,18.971-37.217,156.5,156.5,0,0,1,28.637-32.262,53.075,53.075,0,0,1,10.875,7.25q2.413,1.45,2.417-.242a4.262,4.262,0,0,0-1.208-3.142A40.22,40.22,0,0,0,678.329,35q-2.175-1.45-4.833-2.9a29.162,29.162,0,0,1,4.712-3.746q2.777-1.813,4.713-3.262h-0.242l5.075-3.142c1.126-.642,1.692-1.208,1.692-1.692a1.322,1.322,0,0,0-1.208-1.087,9.24,9.24,0,0,0-2.659-.363,6.035,6.035,0,0,0-3.141.725q-4.113,2.419-7.975,4.954t-7.009,4.471a86.049,86.049,0,0,0-36.25-7.975,74.65,74.65,0,0,0-22.354,3.142q-10.03,3.144-15.587,9.425a10,10,0,0,0-2.417,3.5,13.016,13.016,0,0,0-1.208,5.679,10.957,10.957,0,0,0,.966,4.229,11.77,11.77,0,0,0,3.142,4.229,1.938,1.938,0,0,0,1.571.242,0.789,0.789,0,0,0,.6-0.725,1.648,1.648,0,0,0-.483-1.208,5.1,5.1,0,0,1-2.417-4.35,7.081,7.081,0,0,1,1.812-4.592q1.814-2.175,2.78-3.142a41.964,41.964,0,0,1,15.708-8.458,67.832,67.832,0,0,1,20.058-2.9,97.9,97.9,0,0,1,15.346,1.208,63.026,63.026,0,0,1,15.346,4.592A136.943,136.943,0,0,0,641.6,55.542a186.288,186.288,0,0,0-17.642,28.517,167.8,167.8,0,0,0-11.6,29.6,100.852,100.852,0,0,0-4.108,27.188v3.142a17.417,17.417,0,0,0,.242,2.9q-7.494,1.449-15.346,3.383a85.026,85.026,0,0,0-12.929,4.108,4.113,4.113,0,0,0-2.417,1.571,4.069,4.069,0,0,0-.725,2.3q0,3.138,2.658,3.625l29.967-8.458a6.116,6.116,0,0,1,.6,2.054,8.718,8.718,0,0,0,.363,1.812l0.483,2.175q1.451,3.864,6.4,8.7a16.5,16.5,0,0,0,11.963,4.834A18.479,18.479,0,0,0,633.742,172.508Zm34.679-23.321q0.963-2.049,1.45-3.02,0.725-.963,3.142-4.23t5.679-7.37q3.262-4.107,6.4-7.855t5.075-5.92a4.018,4.018,0,0,1,2.658-1.45,0.977,0.977,0,0,1,1.209.966v0.484a30.216,30.216,0,0,0-.725,4.108,38.907,38.907,0,0,0-.242,4.35,27.147,27.147,0,0,0,2.779,12.325,9.414,9.414,0,0,0,9.063,5.558,16.994,16.994,0,0,0,5.316-1.208q3.382-1.206,3.384-3.625a0.428,0.428,0,0,0-.484-0.483,0.388,0.388,0,0,0-.362.241,0.39,0.39,0,0,1-.363.242,6.489,6.489,0,0,1-2.9,2.3,9.058,9.058,0,0,1-3.625.846,5.314,5.314,0,0,1-5.316-3.867,26.137,26.137,0,0,1-1.45-9.183,62.192,62.192,0,0,1,1.329-12.688q1.325-6.4,1.812-8.579a12.028,12.028,0,0,0,.363-1.329,5.223,5.223,0,0,0,.121-0.846c0-1.45-.567-2.175-1.692-2.175a6.481,6.481,0,0,0-4.592,1.812,29.049,29.049,0,0,0-3.383,3.746q-4.593,6.288-10.875,14.017a77.012,77.012,0,0,1-11.842,12.083,110.222,110.222,0,0,0,2.417-11.237,72.912,72.912,0,0,0,.967-11.721,46.766,46.766,0,0,0-2.3-14.863,18.308,18.308,0,0,0-7.854-10.27,1.649,1.649,0,0,0-1.209-.483,0.427,0.427,0,0,0-.483.483c0,0.646.242,0.967,0.725,0.967a12.781,12.781,0,0,1,4.954,8.458,63.437,63.437,0,0,1,.846,9.908,103.166,103.166,0,0,1-.725,11.117,111.652,111.652,0,0,1-2.175,12.808,59.385,59.385,0,0,1-3.383,10.633,3.914,3.914,0,0,0-.725,2.417,4.651,4.651,0,0,0,1.208,3.262,3.775,3.775,0,0,0,2.9,1.33A3.1,3.1,0,0,0,668.421,149.187Zm68.271,2.78a29.345,29.345,0,0,0,9.425-2.9q4.226-2.175,4.229-6.284,0-3.624-4.108-7.008t-9.546-7.129a63.146,63.146,0,0,1-9.546-7.975,13.093,13.093,0,0,1-4.108-9.3,24.309,24.309,0,0,1,4.108-13.05,48.913,48.913,0,0,1,10.633-11.842A64.647,64.647,0,0,1,751.313,77.9a30.691,30.691,0,0,1,12.808-3.262q4.35,0,4.35,4.35a14.351,14.351,0,0,1-.242,2.537,15.445,15.445,0,0,0-.241,2.779,7.28,7.28,0,0,0,.12,1.208,0.776,0.776,0,0,0,.846.725q1.689,0,2.779-2.779a12.867,12.867,0,0,0,1.088-4.229q0-4.831-4.713-7.129a20.268,20.268,0,0,0-8.82-2.3,32.078,32.078,0,0,0-13.655,3.5A68.821,68.821,0,0,0,731.5,82.367a51.923,51.923,0,0,0-11,12.2,24.415,24.415,0,0,0-4.229,13.171,18.915,18.915,0,0,0,3.625,11.479,36.265,36.265,0,0,0,8.942,8.579q5.313,3.626,10.15,6.767a14.727,14.727,0,0,1,2.537,2.779,5.988,5.988,0,0,1,1.329,3.5,5.422,5.422,0,0,1-2.416,4.471,16.174,16.174,0,0,1-5.559,2.658,20.934,20.934,0,0,1-5.316.846c-1.45,0-2.863.042-4.23,0.121s-2.862.121-4.47,0.121q-1.451,0-1.45.483l0.483,0.967,0.483,0.725q0.481,0.963,3.746,1.208t4.229,0.242A63.525,63.525,0,0,0,736.692,151.967ZM761.221,217.7a4.129,4.129,0,0,0-1.088-1.329q-1.088-1.088-1.087-3.988a39.063,39.063,0,0,1,1.812-9.545q1.814-6.406,4.834-14.5t6.4-16.434q3.381-8.337,6.525-15.346a116.776,116.776,0,0,1,5.558-11.116q4.107,1.449,10.15,3.02a41.512,41.512,0,0,0,10.15,1.571,22.337,22.337,0,0,0,10.392-2.779,28.742,28.742,0,0,0,9.062-7.371,15.374,15.374,0,0,0,3.746-9.908,10.419,10.419,0,0,0,2.417-.725,24.853,24.853,0,0,0,3.625-1.692,4.532,4.532,0,0,0,1.692-1.208,0.978,0.978,0,0,0-1.209-.967,16.748,16.748,0,0,0-3.141.967q-2.663.969-3.625,1.208a30.569,30.569,0,0,0-2.78-8.941q-2.537-5.8-5.437-11.48a67.377,67.377,0,0,0-4.833-8.337l9.425-13.05q1.206-1.45,2.416-2.9a34.231,34.231,0,0,0,2.175-2.9,1.406,1.406,0,0,0,.242-0.967,1.12,1.12,0,0,0-.725-1.208,4.058,4.058,0,0,0-1.208-.242,7.838,7.838,0,0,0-5.8,2.175,42.9,42.9,0,0,0-2.659,3.625q-2.175,3.144-4.229,6.283t-2.779,4.108q-1.212-1.688-3.746-4.592t-4.954-2.9a1.55,1.55,0,0,0-1.571,1.329c-0.242.887-.445,1.654-0.6,2.3q-1.212,8.462-3.142,17.763a69.691,69.691,0,0,1-5.8,17.037,15.849,15.849,0,0,1-1.812,3.5q-1.087,1.575-2.054,3.263c-1.45,0-2.863-.038-4.23-0.121s-2.779-.121-4.229-0.121a10.933,10.933,0,0,0-3.866.725q-1.938.726-1.934,3.384a6.926,6.926,0,0,0,2.3,5.437,19.42,19.42,0,0,0,4.954,3.263q-2.175,3.624-6.041,10.875t-7.855,16.675q-3.987,9.424-7.129,19.333a85.438,85.438,0,0,0-3.866,18.85q-0.482,9.425,3.866,9.425,1.694,0,1.692-1.45h0Zm41.325-115.638Q804,96.869,805.2,91.308a16.151,16.151,0,0,1,1.934,2.417,32.436,32.436,0,0,1,1.933,3.383q-2.663,3.625-4.954,7.371t-4.713,7.613Q801.093,107.261,802.546,102.062Zm9.183,0.363a108.55,108.55,0,0,1,5.438,13.171,55.618,55.618,0,0,1,3.021,13.9,103.075,103.075,0,0,1-12.084,1.691q-6.043.488-12.325,0.484H792.4Zm-18.487,43.621a48.707,48.707,0,0,1-7.613-3.263l4.834-7.975q7.488-.237,14.983-0.725a90.157,90.157,0,0,0,14.742-2.175v2.175a11.344,11.344,0,0,1-.242,2.175,8.943,8.943,0,0,1-3.746,6.284,23.3,23.3,0,0,1-7.371,3.625,26.688,26.688,0,0,1-7.491,1.208A25.408,25.408,0,0,1,793.242,146.046Zm-12.688-6.525a2.412,2.412,0,0,1-.966-1.813q0-1.449,2.416-1.933t3.384-.725l-3.142,5.8A16.2,16.2,0,0,1,780.554,139.521Zm78.9,9.062a78.777,78.777,0,0,0,12.567-10.875,80.17,80.17,0,0,0,9.3-11.6,1.575,1.575,0,0,0,0-1.208,0.84,0.84,0,0,0-.725-0.725,1.29,1.29,0,0,0-.966.725,71.839,71.839,0,0,1-9.184,10.754,76.187,76.187,0,0,1-11.237,9.183,23.81,23.81,0,0,1-10.513,4.23,5.151,5.151,0,0,1-4.712-1.692,7.034,7.034,0,0,1-1.571-4.592,35.044,35.044,0,0,1,2.417-11.358q2.412-6.764,5.437-13.292t4.713-9.908a7.394,7.394,0,0,0,2.779,1.087,17.43,17.43,0,0,0,4.471.605,15.679,15.679,0,0,0,9.183-3.625,10.086,10.086,0,0,0,3.625-7.975,21.856,21.856,0,0,0-1.088-6.042,4.549,4.549,0,0,0-4.712-3.625,9.36,9.36,0,0,0-6.4,2.779,39.129,39.129,0,0,0-5.559,6.4q-2.537,3.625-4.229,6.284a6.686,6.686,0,0,0-2.658-1.209c-0.483,0-.725.325-0.725,0.967a5.691,5.691,0,0,0,.6,2.3,7.071,7.071,0,0,0,.846,1.571q-2.663,4.111-6.042,10.633a100.084,100.084,0,0,0-5.8,13.533,38.532,38.532,0,0,0-2.416,12.325q0,5.076,2.779,7.492a9.272,9.272,0,0,0,7.371,1.933Q852.812,153.172,859.458,148.583Zm-0.483-42.05a15.5,15.5,0,0,1-2.537-.725q1.206-1.931,3.987-6.162t4.954-4.471a1.5,1.5,0,0,1,1.571,1.088,6.509,6.509,0,0,1,.363,2.054,8.6,8.6,0,0,1-.967,5.8,6.3,6.3,0,0,1-4.833,2.9A16.189,16.189,0,0,1,858.975,106.533Zm36.613,46.4a23.549,23.549,0,0,0,9.183-2.054,54.109,54.109,0,0,0,9.425-5.2q2.656-1.687,2.658-2.416c0-.484-0.324-0.725-0.966-0.725a4.172,4.172,0,0,0-2.659.966q-1.694.969-3.5,1.934t-3.987,1.933q-2.175.969-4.713,1.812a16.248,16.248,0,0,1-5.2.846A8.939,8.939,0,0,1,891,148.825a8.574,8.574,0,0,1-3.867-4.229,15.238,15.238,0,0,1-1.208-6.163,37.715,37.715,0,0,1,1.571-10.512,71.454,71.454,0,0,1,3.746-10.15q2.175-4.713,3.625-7.371a46.22,46.22,0,0,0,3.02-4.713,47.451,47.451,0,0,1,4.592-6.525q2.538-3.019,4.954-3.021a2.843,2.843,0,0,1,2.9,2.175,15.207,15.207,0,0,1,.725,4.833,28.851,28.851,0,0,1-.241,3.746q-0.245,1.812-.484,3.021a5.114,5.114,0,0,1-.846,2.416,5.693,5.693,0,0,0-.845,2.9q0,1.693,2.175,2.9a1.638,1.638,0,0,0,1.812-.12,4.214,4.214,0,0,0,1.329-1.571,1.643,1.643,0,0,0,.484-1.209q0.725-2.656,1.691-6.4a30.439,30.439,0,0,0,.967-7.612,16.79,16.79,0,0,0-1.088-6.163,7.035,7.035,0,0,0-3.745-3.987,9.108,9.108,0,0,0-4.109-.967,11.611,11.611,0,0,0-7.491,3.021,35.474,35.474,0,0,0-6.4,7.008q-2.781,3.987-4.47,6.888-1.694,3.387-3.142,6.766t-2.658,7.009a42.575,42.575,0,0,0-1.571,6.525,45.385,45.385,0,0,0-.6,7.491,27.7,27.7,0,0,0,1.691,9.667,12.876,12.876,0,0,0,6.042,7.008,13.337,13.337,0,0,0,6.042,1.45h0Zm43.862,5.8a1.787,1.787,0,0,0,.846-1.691,0.5,0.5,0,0,0-.121-0.363,0.49,0.49,0,0,1-.121-0.362,34.2,34.2,0,0,1-5.558-14.38,119.628,119.628,0,0,1-.967-15.587V124.9a44.761,44.761,0,0,1,2.538-9.183q2.05-5.557,4.591-11.117t3.988-8.942q6.038-1.45,11.962-2.417t11.963-1.692a5.141,5.141,0,0,1,1.571-.362,0.953,0.953,0,0,0,1.087-.846q0-.963-2.658-1.208c-1.775-.159-2.821-0.242-3.142-0.242q-2.175,0-4.591.242a39.6,39.6,0,0,0-4.592.725,39.124,39.124,0,0,1-4.713.6,33.238,33.238,0,0,0-4.47.6q5.8-10.15,12.325-19.575,0.724-1.206,1.329-2.3a4.681,4.681,0,0,0,.6-2.3q0-1.931-2.175-1.933-4.111,0-5.8,3.142A110.349,110.349,0,0,0,946.7,79.829q-3.024,6.162-5.679,12.2a63.27,63.27,0,0,0-9.183,2.417q-4.113,1.45-4.109,7.975a6.588,6.588,0,0,0,.121,1.329,6.921,6.921,0,0,1,.121,1.329q0.482,4.35.725,8.7t0.483,8.459q0.239,1.936.484,3.987a34.861,34.861,0,0,1,.241,3.988,27.3,27.3,0,0,1-.362,4.229,30.18,30.18,0,0,0-.363,4.712,39.141,39.141,0,0,0,1.209,9.788,22.62,22.62,0,0,0,4.591,8.821,4.024,4.024,0,0,0,2.659,1.45A3.618,3.618,0,0,0,939.45,158.733Zm-7.854-47q-0.243-3.263-.242-6.646a3.933,3.933,0,0,1,.484-2.175q0.963-4.35,2.3-4.712a45.405,45.405,0,0,1,4.955-.846q-1.938,5.319-3.867,10.512a82.475,82.475,0,0,0-3.142,10.513Q931.836,114.994,931.6,111.729Zm51.958-27.912q3.383-1.688,3.384-4.35a1.714,1.714,0,0,0-1.088-1.692,5.613,5.613,0,0,0-2.3-.483,13.213,13.213,0,0,0-5.437,1.571q-3.262,1.575-3.263,4.229a1.9,1.9,0,0,0,1.088,1.933,5.023,5.023,0,0,0,2.054.483A13.213,13.213,0,0,0,983.554,83.817Zm16.676,46.641a94.26,94.26,0,0,0,6.04-8.458c0.81-1.609.64-2.417-.48-2.417a1.575,1.575,0,0,0-1.45,1.209,89.148,89.148,0,0,1-6.286,9.183,59.221,59.221,0,0,1-6.041,6.525,63.673,63.673,0,0,1-6.525,5.437,9.227,9.227,0,0,1-5.075,2.055q-2.9,0-4.471-4.35t-1.571-14.017q0-5.556.483-11t1.45-11a1.053,1.053,0,0,1,.121-0.483,1.082,1.082,0,0,0,.121-0.483q0-2.413-2.175-2.417a4.643,4.643,0,0,0-3.988,2.417,14.8,14.8,0,0,0-2.054,4.35q-0.243,2.418-.6,6.645t-0.362,8.821q0,4.35.362,8.459t0.6,6.283q1.688,7.013,4.109,10.029A7,7,0,0,0,978,150.275q3.381,0,7.129-3.021a53.011,53.011,0,0,0,7.371-7.371Q996.6,135.052,1000.23,130.458Zm121.92,38.788a6.451,6.451,0,0,0,3.75-5.921c0-.483-0.09-0.725-0.25-0.725a0.643,0.643,0,0,0-.48.363,4.083,4.083,0,0,1-.48.6,8.342,8.342,0,0,1-3.26,3.625,8.123,8.123,0,0,1-4.23,1.45c-2.1,0-4.15-1.088-6.17-3.263a13.813,13.813,0,0,1-3.5-8.337q-0.24-1.694-.36-3.625c-0.09-1.292-.12-2.576-0.12-3.867a131.875,131.875,0,0,1,1.33-18.246q1.32-9.543,3.02-16.917c1.12-4.912,1.85-8.012,2.17-9.3a7.707,7.707,0,0,0,.48-2.175c0-1.45-.56-2.175-1.69-2.175a7.108,7.108,0,0,0-4.83,2.3,23.048,23.048,0,0,0-3.63,4.229,59.415,59.415,0,0,1-5.31,6.525q-3.15,3.387-5.8,6.767-2.91,3.387-5.32,5.921t-5.8,5.921a26.7,26.7,0,0,0,3.26-9.546,66.2,66.2,0,0,0,.85-10.271q0-13.775-5.2-22.233t-15.83-8.458a39.431,39.431,0,0,0-13.53,2.9l-4.11,1.45h-2.66a37.193,37.193,0,0,0-18.97,5.438,59.822,59.822,0,0,0-15.34,12.446,40.851,40.851,0,0,0-6.16,9.908,27.181,27.181,0,0,0-2.78,11.358,11.085,11.085,0,0,0,3.14,8.217,8.865,8.865,0,0,1-.12,1.45,7.884,7.884,0,0,0-.12,1.45c0,4.191,1.6,7.05,4.83,8.579a23.315,23.315,0,0,0,10.15,2.3,41.323,41.323,0,0,0,15.71-3.263,55.834,55.834,0,0,0,14.86-9.062,49.165,49.165,0,0,0,11.12-13.171,30.508,30.508,0,0,0,4.23-15.346q0-14.012-11.6-18.608a39.028,39.028,0,0,1,12.56-2.658q13.785,0,13.78,18.366a101.528,101.528,0,0,1-.73,11.117,112.485,112.485,0,0,1-2.17,12.808,59.337,59.337,0,0,1-3.39,10.634,3.934,3.934,0,0,0-.72,2.416,4.79,4.79,0,0,0,1.21,3.142,3.648,3.648,0,0,0,2.9,1.45,0.477,0.477,0,0,0,.36-0.121,0.493,0.493,0,0,1,.36-0.121,3.745,3.745,0,0,0,2.42-2.054,25.023,25.023,0,0,1,1.21-2.779,48.6,48.6,0,0,1,4.35-6.042q3.615-4.587,7.97-9.908t7.25-8.458q2.91-3.138,4.35-3.142c0.81,0,1.21.887,1.21,2.658a31.955,31.955,0,0,1-.6,5.679,28.352,28.352,0,0,1-1.09,4.471q-1.215,6.044-2.78,12.446a52.987,52.987,0,0,0-1.57,12.688,35.38,35.38,0,0,0,.6,6.4,18.907,18.907,0,0,0,2.3,6.162,16.152,16.152,0,0,0,6.04,5.8,14.813,14.813,0,0,0,7.25,2.417Q1118.405,171.3,1122.15,169.246Zm-110.2-26.584q-2.535-1.812-2.54-6.4c0.64,0.163,1.29.325,1.94,0.484a7.815,7.815,0,0,0,1.93.241c0.64,0,.97-0.241.97-0.725,0-.321-0.69-0.762-2.06-1.329a18.223,18.223,0,0,1-2.78-1.329q0.48-5.556,5.92-13.775a95.472,95.472,0,0,1,14.14-16.433A78.569,78.569,0,0,1,1048.32,90.1a13.041,13.041,0,0,1,8.94,5.8,20.824,20.824,0,0,1,2.9,11.358,30.661,30.661,0,0,1-6.28,18.488,46.642,46.642,0,0,1-15.71,13.654,39.88,39.88,0,0,1-19.09,5.075A12.111,12.111,0,0,1,1011.95,142.662Zm-0.24-32.141a49.688,49.688,0,0,1,11.84-12.808,37.716,37.716,0,0,1,14.86-7.129,73.144,73.144,0,0,0-15.1,11.963,106.993,106.993,0,0,0-11,13.171,55.727,55.727,0,0,0-5.8,9.908A31.482,31.482,0,0,1,1011.71,110.521ZM387.725,311.029a56.731,56.731,0,0,0,8.217-2.3,57.949,57.949,0,0,0,21.025-15.1,115.652,115.652,0,0,0,15.466-22.112,249.542,249.542,0,0,0,11.117-23.2,53.222,53.222,0,0,1,7.008-.484h6.525q2.175,0.245,5.8.6t7.492,1.088a123.79,123.79,0,0,0,9.063,33.592q6.644,15.225,19.212,21.025h-0.242a1.812,1.812,0,0,0,2.055.483,1.576,1.576,0,0,0,.845-1.45,1.415,1.415,0,0,0-.241-0.967q-0.245-1.449-.484-0.966a39.763,39.763,0,0,1-5.679-3.625,23.915,23.915,0,0,1-6.162-7.492,71.341,71.341,0,0,1-8.217-18.729,131.192,131.192,0,0,1-4.108-20.9q3.863,0.968,7.129,1.933a21.605,21.605,0,0,1,5.2,2.175,7.99,7.99,0,0,1,2.537,1.812,4.449,4.449,0,0,1,1.329,3.263q0,4.837,1.692,4.833,1.932,0,1.933-4.833,0-6.764-6.4-10.029a52.176,52.176,0,0,0-14.137-4.713q-0.245-4.106-.363-8.216t-0.121-7.975q0-4.35.242-8.7t0.483-8.217a163.576,163.576,0,0,1,3.142-22.475q2.414-11.6,4.833-19.817,0-1.206-2.3-2.416a8.538,8.538,0,0,0-3.5-1.209h-1.45q-1.694,2.662-3.625,12.809a180.352,180.352,0,0,0-3.141,20.3,227.812,227.812,0,0,0-1.209,23.683q0,5.319.242,10.633t0.725,10.875q-3.868-.482-7.129-0.6t-5.2-.121h-5.8q-3.144,0-6.283.242,2.412-6.037,5.2-15.708t5.437-19.938q2.657-10.269,4.833-18.729t3.625-12.325a1.647,1.647,0,0,1,2.175-.242v2.175a1.97,1.97,0,0,0,.484-1.45l-0.484-.725q-0.243-2.175-.725-2.175c-0.324,0-.808.808-1.45,2.417a3.117,3.117,0,0,0-1.45,1.933q-3.868,14.019-10.27,31.417T439.2,244.208a220.149,220.149,0,0,0-27.912,4.471,140.35,140.35,0,0,0-27.43,9.063,62,62,0,0,0-20.783,14.621,30.445,30.445,0,0,0-7.975,21.145q0,11.12,6.767,14.863a30.909,30.909,0,0,0,15.225,3.746A50.638,50.638,0,0,0,387.725,311.029Zm-22.6-7.733q-5.193-2.781-4.954-10.029a27.686,27.686,0,0,1,7.129-19.092,55.931,55.931,0,0,1,18.729-13.292,126.308,126.308,0,0,1,25.134-8.337,185.383,185.383,0,0,1,26.1-3.988q-5.076,11.12-11,21.992a97.884,97.884,0,0,1-13.654,19.333,50.991,50.991,0,0,1-18.125,12.809,42.376,42.376,0,0,1-8.1,2.416,47.573,47.573,0,0,1-9.546.967A24.5,24.5,0,0,1,365.129,303.3ZM523.9,366.25a46.157,46.157,0,0,0,12.325-17.4,108.044,108.044,0,0,0,6.646-22.6q2.175-11.963,3.383-22.354,7.251-1.212,7.25-2.9,0-.725-3.141-0.725H548.8a10.885,10.885,0,0,0-2.054.242q1.206-9.663,2.175-18.246a128.151,128.151,0,0,0,.966-13.413q1.932-2.412,4.713-5.8a14.089,14.089,0,0,0,3.262-6.041q1.208-4.832-2.416-4.834-2.42,0-5.075,3.625a15.172,15.172,0,0,0-2.417,6.525q-0.488,3.625-.967,6.042a70.2,70.2,0,0,1-5.437,5.921q-3.75,3.75-8.458,7.612a80.759,80.759,0,0,1-9.063,6.525,15.28,15.28,0,0,1-7.733,2.659,3.9,3.9,0,0,1-3.384-1.33,4.645,4.645,0,0,1-.966-2.779,8.454,8.454,0,0,1,.121-1.45,9.287,9.287,0,0,1,.362-1.45,35.921,35.921,0,0,1,5.075-11.72,80.423,80.423,0,0,1,9.908-12.809,61.374,61.374,0,0,1,12.205-10.15q6.4-3.987,11.962-3.987l5.558,0.725A4.866,4.866,0,0,1,561,248.558q0,1.451.725,1.45c0.8,0.325,1.208,0,1.208-.966A5.232,5.232,0,0,0,561,243.6a11.41,11.41,0,0,0-5.317-2.779,14.525,14.525,0,0,0-3.141-.242q-6.769,0-15.1,4.954a80.891,80.891,0,0,0-15.83,12.446,89.02,89.02,0,0,0-12.325,15.105q-4.836,7.611-4.833,12.929,0,6.043,6.767,7.491a2.661,2.661,0,0,0,1.208.242h1.208a22.377,22.377,0,0,0,12.2-3.988,89.562,89.562,0,0,0,11.72-9.062q5.558-5.074,9.184-8.7-0.487,4.593-1.571,12.325t-2.779,16.917a92.2,92.2,0,0,0-23.684,7.371,70.96,70.96,0,0,0-20.783,14.379,49.054,49.054,0,0,0-12.567,21.75,35.21,35.21,0,0,0-1.45,9.666A19.627,19.627,0,0,0,488.5,367.7q4.593,5.313,14.983,5.317Q516.047,373.017,523.9,366.25Zm-30.691-.846a15.249,15.249,0,0,1-4.471-11.237,26.656,26.656,0,0,1,1.45-8.459,49.908,49.908,0,0,1,11.721-20.541,64.119,64.119,0,0,1,18.608-13.534,82.086,82.086,0,0,1,21.387-7.008q-0.967,7.25-3.141,17.642a155.081,155.081,0,0,1-5.921,20.783,58.113,58.113,0,0,1-9.788,17.642,22.2,22.2,0,0,1-15.225,8.216Q497.684,369.871,493.213,365.4Zm93.766-66.821a78.821,78.821,0,0,0,12.567-10.875,80.17,80.17,0,0,0,9.3-11.6,1.575,1.575,0,0,0,0-1.208,0.84,0.84,0,0,0-.725-0.725,1.29,1.29,0,0,0-.967.725,71.829,71.829,0,0,1-9.183,10.754,76.187,76.187,0,0,1-11.237,9.183,23.81,23.81,0,0,1-10.513,4.23,5.149,5.149,0,0,1-4.712-1.692,7.034,7.034,0,0,1-1.571-4.592,35.065,35.065,0,0,1,2.416-11.358q2.414-6.764,5.438-13.292t4.712-9.908a7.394,7.394,0,0,0,2.78,1.087,17.422,17.422,0,0,0,4.47.6,15.679,15.679,0,0,0,9.184-3.625,10.088,10.088,0,0,0,3.625-7.975,21.857,21.857,0,0,0-1.088-6.042,4.55,4.55,0,0,0-4.712-3.625,9.361,9.361,0,0,0-6.4,2.779,39.153,39.153,0,0,0-5.559,6.4q-2.536,3.626-4.229,6.284a6.686,6.686,0,0,0-2.658-1.209c-0.484,0-.725.325-0.725,0.967a5.691,5.691,0,0,0,.6,2.3,7.026,7.026,0,0,0,.846,1.571q-2.663,4.111-6.042,10.633a100.084,100.084,0,0,0-5.8,13.533,38.536,38.536,0,0,0-2.417,12.325q0,5.076,2.78,7.492a9.271,9.271,0,0,0,7.37,1.933Q580.334,303.172,586.979,298.583Zm-0.483-42.05a15.523,15.523,0,0,1-2.538-.725q1.208-1.93,3.988-6.162t4.954-4.471a1.5,1.5,0,0,1,1.571,1.087,6.515,6.515,0,0,1,.362,2.055,8.609,8.609,0,0,1-.966,5.8,6.3,6.3,0,0,1-4.834,2.9A16.206,16.206,0,0,1,586.5,256.533Zm26.7,42.654q0.963-2.049,1.45-3.02,0.725-.963,3.142-4.23t5.679-7.37q3.262-4.107,6.4-7.854t5.075-5.921a4.018,4.018,0,0,1,2.658-1.45,0.977,0.977,0,0,1,1.209.966v0.484a30.216,30.216,0,0,0-.725,4.108,38.907,38.907,0,0,0-.242,4.35,27.147,27.147,0,0,0,2.779,12.325,9.414,9.414,0,0,0,9.063,5.558,16.994,16.994,0,0,0,5.316-1.208q3.382-1.206,3.384-3.625a0.428,0.428,0,0,0-.484-0.483,0.388,0.388,0,0,0-.362.241,0.39,0.39,0,0,1-.363.242,6.489,6.489,0,0,1-2.9,2.3,9.058,9.058,0,0,1-3.625.846,5.314,5.314,0,0,1-5.316-3.867,26.137,26.137,0,0,1-1.45-9.183,62.192,62.192,0,0,1,1.329-12.688q1.325-6.4,1.812-8.579a12.028,12.028,0,0,0,.363-1.329,5.223,5.223,0,0,0,.121-0.846c0-1.45-.567-2.175-1.692-2.175a6.481,6.481,0,0,0-4.592,1.812,29.049,29.049,0,0,0-3.383,3.746q-4.593,6.288-10.875,14.017a77.012,77.012,0,0,1-11.842,12.083A110.222,110.222,0,0,0,617.55,277.2a72.912,72.912,0,0,0,.967-11.721,46.755,46.755,0,0,0-2.3-14.862,18.307,18.307,0,0,0-7.854-10.271,1.65,1.65,0,0,0-1.209-.484,0.427,0.427,0,0,0-.483.484c0,0.645.242,0.966,0.725,0.966a12.783,12.783,0,0,1,4.954,8.459,63.43,63.43,0,0,1,.846,9.908,103.166,103.166,0,0,1-.725,11.117A111.652,111.652,0,0,1,610.3,283.6a59.385,59.385,0,0,1-3.383,10.633,3.914,3.914,0,0,0-.725,2.417,4.655,4.655,0,0,0,1.208,3.263,3.777,3.777,0,0,0,2.9,1.329A3.1,3.1,0,0,0,613.2,299.187Zm60.658,3.746a23.554,23.554,0,0,0,9.184-2.054,54.145,54.145,0,0,0,9.425-5.2q2.657-1.687,2.658-2.416c0-.484-0.325-0.725-0.967-0.725a4.17,4.17,0,0,0-2.658.966q-1.694.969-3.5,1.934t-3.988,1.933q-2.175.969-4.712,1.812a16.248,16.248,0,0,1-5.2.846,8.936,8.936,0,0,1-4.833-1.208A8.57,8.57,0,0,1,665.4,294.6a15.238,15.238,0,0,1-1.208-6.163,37.749,37.749,0,0,1,1.57-10.512,71.454,71.454,0,0,1,3.746-10.15q2.175-4.713,3.625-7.371a46.354,46.354,0,0,0,3.021-4.713,47.487,47.487,0,0,1,4.592-6.525q2.538-3.018,4.954-3.02a2.843,2.843,0,0,1,2.9,2.175,15.233,15.233,0,0,1,.725,4.833,28.673,28.673,0,0,1-.242,3.746q-0.243,1.812-.483,3.021a5.114,5.114,0,0,1-.846,2.416,5.7,5.7,0,0,0-.846,2.9q0,1.694,2.175,2.9a1.638,1.638,0,0,0,1.813-.121,4.221,4.221,0,0,0,1.329-1.57,1.642,1.642,0,0,0,.483-1.209q0.726-2.656,1.692-6.4a30.439,30.439,0,0,0,.967-7.612,16.789,16.789,0,0,0-1.088-6.163,7.036,7.036,0,0,0-3.746-3.987,9.1,9.1,0,0,0-4.108-.967,11.613,11.613,0,0,0-7.492,3.021,35.463,35.463,0,0,0-6.4,7.008q-2.781,3.987-4.471,6.888-1.694,3.387-3.141,6.766t-2.659,7.009a42.7,42.7,0,0,0-1.57,6.525,45.276,45.276,0,0,0-.605,7.491,27.7,27.7,0,0,0,1.692,9.667,12.872,12.872,0,0,0,6.042,7.008,13.336,13.336,0,0,0,6.041,1.45h0Zm50.509,36.25a72.172,72.172,0,0,0,11.116-6.283,32.258,32.258,0,0,0,10.392-12.929,41.887,41.887,0,0,0,3.142-16.554c0-1.292-.042-2.576-0.121-3.867s-0.2-2.575-.363-3.867q3.383-.237,5.075,1.329c1.126,1.05,1.934,1.571,2.417,1.571s0.725-.321.725-0.966q0-1.932-3.625-3.384a16.642,16.642,0,0,0-5.075-1.45,64.626,64.626,0,0,0-3.021-11.721q-2.056-5.675-4.712-11.237,1.449-1.932,4.35-6.042t2.9-6.283c0-.967-0.567-1.45-1.692-1.45a12.217,12.217,0,0,0-3.746,1.208,35.717,35.717,0,0,0-5.2,2.779q-2.418,1.575-2.416,3.021a8.448,8.448,0,0,0,1.208,3.5q1.206,2.3,1.692,3.5a93.889,93.889,0,0,1-8.459,10.875,96.585,96.585,0,0,1-10.15,9.666,31.019,31.019,0,0,1-4.35,3.142q-3.387,2.175-4.833,2.175a0.641,0.641,0,0,1-.725-0.725q0-1.206,2.9-6.4t6.767-12.325q3.863-7.125,6.766-13.9t2.9-10.875a8.859,8.859,0,0,0-1.57-5.317,5.7,5.7,0,0,0-4.955-2.175,13.111,13.111,0,0,0-3.866.967,26.983,26.983,0,0,0-4.834,2.3q-2.175,1.331-2.175,2.779c0,0.325.242,0.483,0.725,0.483q0.963,0,3.142-1.691a6.507,6.507,0,0,1,3.625-1.692,1.347,1.347,0,0,1,1.45,1.208,11.412,11.412,0,0,1,.242,2.175,27.185,27.185,0,0,1-2.175,10.029q-2.175,5.438-3.867,9.788-2.175,5.562-4.471,11.117t-4.229,11.116a15.3,15.3,0,0,0-1.208,5.317q0,2.9,2.416,2.9,3.138,0,7.613-3.142t6.887-5.075a115.877,115.877,0,0,0,17.4-20.3,79.9,79.9,0,0,1,3.142,10.271,58.885,58.885,0,0,1,1.45,10.754,47.792,47.792,0,0,0-15.708,7.855q-8.219,5.917-14.259,11a48.366,48.366,0,0,0-8.458,8.7,18.3,18.3,0,0,0-4.35,11.359q0,5.075,3.625,7.371a15.04,15.04,0,0,0,8.217,2.3A29.284,29.284,0,0,0,724.367,339.183Zm13.775-73.95a7.768,7.768,0,0,0-1.45-1.933q1.931-1.206,3.5-2.3a15.894,15.894,0,0,1,3.5-1.812q-1.212,1.937-2.3,4.108t-2.3,4.108Q738.622,266.2,738.142,265.233Zm-31.417,72.621a7.053,7.053,0,0,1-2.417-5.679q0-5.319,4.23-11a57.983,57.983,0,0,1,10.633-10.754,95.594,95.594,0,0,1,12.929-8.7,67.647,67.647,0,0,1,10.875-5.075,48.647,48.647,0,0,1-12.808,33.592,56.316,56.316,0,0,1-7.975,6.525,16.871,16.871,0,0,1-9.667,3.141A8.663,8.663,0,0,1,706.725,337.854Z"/>
  <path id="adventures_of_a_curious_mind" data-name="adventures of a curious mind" class="cls-2" d="M85.75,396.5v9.417a15.372,15.372,0,0,0-6.792-7.5,20.036,20.036,0,0,0-10.208-2.834,19.16,19.16,0,0,0-14,5.792,19.418,19.418,0,0,0,0,27.75,19.156,19.156,0,0,0,14,5.792,19.376,19.376,0,0,0,10-2.75,17.535,17.535,0,0,0,7-7.5V434h2.667V396.5H85.75Zm-29.042,6.625a16.451,16.451,0,0,1,12.125-5.208,16.243,16.243,0,0,1,12.042,5.166,17.3,17.3,0,0,1,.042,24.375,16.216,16.216,0,0,1-12.042,5.125,17.5,17.5,0,0,1-17.292-17.25A16.852,16.852,0,0,1,56.708,403.125ZM134,371.5v34.167a17.047,17.047,0,0,0-7.042-7.334,19.744,19.744,0,0,0-9.958-2.75,19.123,19.123,0,0,0-14.042,5.792A19.667,19.667,0,0,0,117,434.917a19.462,19.462,0,0,0,9.75-2.709,18.467,18.467,0,0,0,7.25-7.291V434h2.667V371.5H134Zm-29.125,31.583a16.241,16.241,0,0,1,12.042-5.166,16.452,16.452,0,0,1,12.125,5.208,16.855,16.855,0,0,1,5.125,12.208,17.5,17.5,0,0,1-17.292,17.25,16.216,16.216,0,0,1-12.042-5.125A17.3,17.3,0,0,1,104.875,403.083Zm58.458,26.334L147.5,396.5h-2.917l18.5,38.583L181.5,396.5h-2.417ZM222.5,428.5v-4.25a19.706,19.706,0,0,1-6.542,6.125A17.539,17.539,0,0,1,207,432.667q-5,0-10.417-4.334L222.75,402.5A19.21,19.21,0,0,0,208,395.667a19.659,19.659,0,0,0-14.417,5.791,18.675,18.675,0,0,0-5.833,13.709,19.153,19.153,0,0,0,5.875,13.875A18.753,18.753,0,0,0,207.417,435h0.75a18.683,18.683,0,0,0,14.333-6.5h0Zm-3.417-26-24.25,24.083a17.066,17.066,0,0,1-4.416-11.666A17.536,17.536,0,0,1,207.292,398a17.449,17.449,0,0,1,11.791,4.5h0Zm15.084,9.667a13.493,13.493,0,0,1,4.375-10,14.093,14.093,0,0,1,10.125-4.25,13.012,13.012,0,0,1,9.791,4.25,14.037,14.037,0,0,1,4.042,10V434h2.667V412.167a16.141,16.141,0,0,0-4.75-11.75,15.822,15.822,0,0,0-11.75-4.834q-10.251,0-14.5,8.5V396.5H231.5V434h2.667V412.167Zm47.041,16.666a11.331,11.331,0,0,1-3.375-8.416v-21.5h11.5v-2.334h-11.5V381.417h-2.666v39a13.348,13.348,0,0,0,4.166,10.125,14.107,14.107,0,0,0,10.084,3.958v-2.333A11.242,11.242,0,0,1,281.208,428.833Zm45.875-10.5a13.493,13.493,0,0,1-4.375,10,14.093,14.093,0,0,1-10.125,4.25,13.01,13.01,0,0,1-9.791-4.25,14.029,14.029,0,0,1-4.042-10V396.5h-2.667v21.833a16.137,16.137,0,0,0,4.75,11.75,15.818,15.818,0,0,0,11.75,4.834q10.251,0,14.5-8.5V434h2.667V396.5h-2.667v21.833Zm34.584-16.75V398.25a12.4,12.4,0,0,0-7.5-2.667,13.881,13.881,0,0,0-7.084,1.834,11.766,11.766,0,0,0-4.666,4.666V396.5H339.75V434h2.667V409a10.569,10.569,0,0,1,3.375-7.75,10.768,10.768,0,0,1,7.791-3.333,11.235,11.235,0,0,1,8.084,3.666h0Zm41,26.917v-4.25a19.706,19.706,0,0,1-6.542,6.125,17.539,17.539,0,0,1-8.958,2.292q-5,0-10.417-4.334L402.917,402.5a19.21,19.21,0,0,0-14.75-6.833,19.659,19.659,0,0,0-14.417,5.791,18.675,18.675,0,0,0-5.833,13.709,19.153,19.153,0,0,0,5.875,13.875A18.751,18.751,0,0,0,387.583,435h0.75a18.685,18.685,0,0,0,14.334-6.5h0Zm-3.417-26L375,426.583a17.067,17.067,0,0,1-4.417-11.666A17.536,17.536,0,0,1,387.458,398a17.45,17.45,0,0,1,11.792,4.5h0Zm27.333-.667v-3.416a8.391,8.391,0,0,0-6.416-2.917,9.063,9.063,0,0,0-6.125,2.042,6.35,6.35,0,0,0-2.375,5,7.732,7.732,0,0,0,1.875,5.166,17.38,17.38,0,0,0,4.5,3.75q2.625,1.543,5.291,3.125a17.446,17.446,0,0,1,4.542,3.834,8.365,8.365,0,0,1,1.875,5.541,7.9,7.9,0,0,1-2.958,5.959,10.494,10.494,0,0,1-7.292,2.666q-7,0-10.167-7v4a9.54,9.54,0,0,0,4.209,3.875,13.526,13.526,0,0,0,6.208,1.459,12.662,12.662,0,0,0,8.958-3.459,11.03,11.03,0,0,0,3.709-8.375,9.814,9.814,0,0,0-1.875-5.916,16.163,16.163,0,0,0-4.542-4.25q-2.668-1.666-5.292-3.125a22.723,22.723,0,0,1-4.5-3.209,5.183,5.183,0,0,1-1.875-3.833,4.417,4.417,0,0,1,1.667-3.5,5.747,5.747,0,0,1,3.833-1.417q4.083,0,6.75,4h0Zm62,33.084h0.75A18.331,18.331,0,0,0,503.083,429a19.412,19.412,0,0,0,5.667-13.875,18.789,18.789,0,0,0-5.792-13.75,19.865,19.865,0,0,0-28.041,0,18.671,18.671,0,0,0-5.834,13.708,19.359,19.359,0,0,0,5.75,13.875,18.443,18.443,0,0,0,13.75,5.959h0Zm12.5-7.459a16.213,16.213,0,0,1-12.041,5.125,17.5,17.5,0,0,1-17.292-17.25,16.851,16.851,0,0,1,5.125-12.208A16.451,16.451,0,0,1,489,397.917a16.243,16.243,0,0,1,12.042,5.166A17.3,17.3,0,0,1,501.083,427.458Zm20.584-42.166a13.348,13.348,0,0,0-4.167,10.125V434h2.667V419.667h11.666v-2.334H520.167V395.417a11.459,11.459,0,0,1,11.583-11.75v-2.334A14.109,14.109,0,0,0,521.667,385.292ZM604.083,396.5v9.417a15.367,15.367,0,0,0-6.791-7.5,20.038,20.038,0,0,0-10.209-2.834,19.161,19.161,0,0,0-14,5.792,19.419,19.419,0,0,0,0,27.75,19.157,19.157,0,0,0,14,5.792,19.375,19.375,0,0,0,10-2.75,17.533,17.533,0,0,0,7-7.5V434h2.667V396.5h-2.667Zm-29.041,6.625a16.449,16.449,0,0,1,12.125-5.208,16.242,16.242,0,0,1,12.041,5.166,17.3,17.3,0,0,1,.042,24.375,16.216,16.216,0,0,1-12.042,5.125,17.5,17.5,0,0,1-17.291-17.25A16.851,16.851,0,0,1,575.042,403.125Zm105.125,25.542v-4.334a19.021,19.021,0,0,1-6.542,6.167,17.335,17.335,0,1,1,0-30.167,19.323,19.323,0,0,1,6.542,6.084v-4.25a19.132,19.132,0,0,0-14.5-6.417,19.557,19.557,0,0,0-14.334,5.792,18.721,18.721,0,0,0-5.833,13.75,19.269,19.269,0,0,0,5.75,13.875A18.5,18.5,0,0,0,665,435.083h0.75a18.712,18.712,0,0,0,14.417-6.416h0Zm38.083-10.334a13.493,13.493,0,0,1-4.375,10,14.1,14.1,0,0,1-10.125,4.25,13.012,13.012,0,0,1-9.792-4.25,14.032,14.032,0,0,1-4.041-10V396.5H687.25v21.833a16.133,16.133,0,0,0,4.75,11.75,15.817,15.817,0,0,0,11.75,4.834q10.249,0,14.5-8.5V434h2.667V396.5H718.25v21.833Zm34.583-16.75V398.25a12.391,12.391,0,0,0-7.5-2.667,13.877,13.877,0,0,0-7.083,1.834,11.769,11.769,0,0,0-4.667,4.666V396.5h-2.666V434h2.666V409a10.569,10.569,0,0,1,3.375-7.75,10.77,10.77,0,0,1,7.792-3.333,11.232,11.232,0,0,1,8.083,3.666h0Zm9-5V434H764.5V396.583h-2.667Zm3.75-11.416q0-2.25-2.416-2.25t-2.417,2.25q0,2.25,2.417,2.25T765.583,385.167Zm28.25,49.75h0.75A18.331,18.331,0,0,0,808.333,429,19.412,19.412,0,0,0,814,415.125a18.789,18.789,0,0,0-5.792-13.75,19.865,19.865,0,0,0-28.041,0,18.671,18.671,0,0,0-5.834,13.708,19.359,19.359,0,0,0,5.75,13.875,18.443,18.443,0,0,0,13.75,5.959h0Zm12.5-7.459a16.213,16.213,0,0,1-12.041,5.125A17.5,17.5,0,0,1,777,415.333a16.851,16.851,0,0,1,5.125-12.208,16.451,16.451,0,0,1,12.125-5.208,16.243,16.243,0,0,1,12.042,5.166A17.3,17.3,0,0,1,806.333,427.458Zm46.584-9.125a13.5,13.5,0,0,1-4.375,10,14.1,14.1,0,0,1-10.125,4.25,13.011,13.011,0,0,1-9.792-4.25,14.033,14.033,0,0,1-4.042-10V396.5h-2.666v21.833a16.133,16.133,0,0,0,4.75,11.75,15.815,15.815,0,0,0,11.75,4.834q10.25,0,14.5-8.5V434h2.666V396.5h-2.666v21.833Zm27.583-16.5v-3.416a8.394,8.394,0,0,0-6.417-2.917,9.065,9.065,0,0,0-6.125,2.042,6.353,6.353,0,0,0-2.375,5,7.732,7.732,0,0,0,1.875,5.166,17.38,17.38,0,0,0,4.5,3.75q2.625,1.543,5.292,3.125a17.462,17.462,0,0,1,4.542,3.834,8.365,8.365,0,0,1,1.875,5.541,7.9,7.9,0,0,1-2.959,5.959,10.49,10.49,0,0,1-7.291,2.666q-7,0-10.167-7v4a9.543,9.543,0,0,0,4.208,3.875,13.533,13.533,0,0,0,6.209,1.459,12.663,12.663,0,0,0,8.958-3.459,11.033,11.033,0,0,0,3.708-8.375,9.814,9.814,0,0,0-1.875-5.916,16.159,16.159,0,0,0-4.541-4.25q-2.668-1.666-5.292-3.125a22.723,22.723,0,0,1-4.5-3.209,5.183,5.183,0,0,1-1.875-3.833,4.417,4.417,0,0,1,1.667-3.5,5.746,5.746,0,0,1,3.833-1.417q4.082,0,6.75,4h0Zm70.583,2.584a14.175,14.175,0,0,0-4.75-6.375,11.111,11.111,0,0,0-6.791-2.459,15.108,15.108,0,0,0-11.792,6.167V396.5h-2.667V434h2.667V409a11.39,11.39,0,0,1,11.167-11.083,10.247,10.247,0,0,1,7.666,3.291A10.865,10.865,0,0,1,949.75,409v25h2.667V409a10.448,10.448,0,0,1,3.458-7.75,11.093,11.093,0,0,1,7.917-3.333,10.333,10.333,0,0,1,7.625,3.208,10.989,10.989,0,0,1,3.166,8.042V434h2.667V409.167q0-6.25-3.833-9.917a12.507,12.507,0,0,0-8.917-3.667A14.938,14.938,0,0,0,955.875,398a11.87,11.87,0,0,0-4.792,6.417h0Zm38.084-7.834V434h2.666V396.583h-2.666Zm3.75-11.416q0-2.25-2.417-2.25t-2.417,2.25q0,2.25,2.417,2.25T992.917,385.167Zm13.5,27a13.514,13.514,0,0,1,4.37-10,14.1,14.1,0,0,1,10.13-4.25,13.022,13.022,0,0,1,9.79,4.25,14.052,14.052,0,0,1,4.04,10V434h2.67V412.167a16.165,16.165,0,0,0-4.75-11.75,15.836,15.836,0,0,0-11.75-4.834q-10.26,0-14.5,8.5V396.5h-2.67V434h2.67V412.167ZM1083,371.5v34.167a17.065,17.065,0,0,0-7.04-7.334,19.776,19.776,0,0,0-9.96-2.75,19.667,19.667,0,1,0,0,39.334,19.478,19.478,0,0,0,9.75-2.709,18.467,18.467,0,0,0,7.25-7.291V434h2.67V371.5H1083Zm-29.12,31.583a16.231,16.231,0,0,1,12.04-5.166,16.44,16.44,0,0,1,12.12,5.208,16.844,16.844,0,0,1,5.13,12.208,17.512,17.512,0,0,1-17.29,17.25,16.235,16.235,0,0,1-12.05-5.125A17.292,17.292,0,0,1,1053.88,403.083Z"/>
</svg>
